<svg xmlns="http://www.w3.org/2000/svg" viewBox="0 0 200 200" width="200" height="200">
  <!-- Sol -->
  <circle cx="160" cy="40" r="15" fill="#F09C43" />
  
  <!-- Montaña principal -->
  <polygon points="30,150 100,30 170,150" fill="#4A6630" />

  <!-- Camino -->
  <path d="M90,150 Q100,130 95,110 Q90,90 100,70 Q110,50 115,60 Q120,70 110,90 Q100,110 105,130 Q110,150 90,150" 
        fill="#D9A441" />

  <!-- Flor -->
  <g transform="translate(50,140)">
    <circle r="5" fill="#C05A24" />
    <g fill="#E27934">
      <ellipse rx="5" ry="2" transform="rotate(0) translate(0,-8)" />
      <ellipse rx="5" ry="2" transform="rotate(45) translate(0,-8)" />
      <ellipse rx="5" ry="2" transform="rotate(90) translate(0,-8)" />
      <ellipse rx="5" ry="2" transform="rotate(135) translate(0,-8)" />
      <ellipse rx="5" ry="2" transform="rotate(180) translate(0,-8)" />
      <ellipse rx="5" ry="2" transform="rotate(225) translate(0,-8)" />
      <ellipse rx="5" ry="2" transform="rotate(270) translate(0,-8)" />
      <ellipse rx="5" ry="2" transform="rotate(315) translate(0,-8)" />
    </g>
    <!-- Hojas -->
    <ellipse rx="3" ry="1.5" transform="rotate(30) translate(0,10)" fill="#90A258" />
    <ellipse rx="3" ry="1.5" transform="rotate(-30) translate(0,10)" fill="#90A258" />
  </g>

</svg>
